<mxfile modified="2020-12-01T10:07:07.623Z" host="app.diagrams.net" agent="5.0 (Windows NT 10.0; Win64; x64) AppleWebKit/537.36 (KHTML, like Gecko) Chrome/87.0.4280.66 Safari/537.36" etag="zs-M1nV2R6Gok3iaYBFo" version="13.10.4" type="github">
  <diagram id="f106602c-feb2-e66a-4537-3a34d633f6aa" name="Page-1">
    <mxGraphModel dx="1422" dy="882" grid="1" gridSize="10" guides="1" tooltips="1" connect="1" arrows="1" fold="1" page="1" pageScale="1" pageWidth="1169" pageHeight="827" background="#ffffff" math="0" shadow="0">
      <root>
        <mxCell id="0" />
        <mxCell id="1" parent="0" />
        <mxCell id="14" value="&lt;b&gt;Google &lt;/b&gt;Cloud Platform" style="fillColor=#F6F6F6;strokeColor=none;shadow=0;gradientColor=none;fontSize=14;align=left;spacing=10;fontColor=#717171;9E9E9E;verticalAlign=top;spacingTop=-4;fontStyle=0;spacingLeft=40;html=1;" parent="1" vertex="1">
          <mxGeometry x="314.5" y="100" width="380.5" height="480" as="geometry" />
        </mxCell>
        <mxCell id="15" value="" style="shape=mxgraph.gcp2.google_cloud_platform;fillColor=#F6F6F6;strokeColor=none;shadow=0;gradientColor=none;" parent="14" vertex="1">
          <mxGeometry width="23" height="20" relative="1" as="geometry">
            <mxPoint x="20" y="10" as="offset" />
          </mxGeometry>
        </mxCell>
        <mxCell id="580" value="&lt;div&gt;&lt;span style=&quot;font-size: 16px&quot;&gt;Kubernetes cluster&lt;/span&gt;&lt;/div&gt;" style="rounded=1;absoluteArcSize=1;arcSize=2;html=1;strokeColor=none;gradientColor=none;shadow=0;dashed=0;strokeColor=none;fontSize=12;fontColor=#9E9E9E;align=center;verticalAlign=top;spacing=10;spacingTop=-4;fillColor=#E1F5FE;" parent="14" vertex="1">
          <mxGeometry x="12.475409836065573" y="40" width="349.311475409836" height="420" as="geometry" />
        </mxCell>
        <mxCell id="2" value="&lt;font style=&quot;font-size: 18px&quot;&gt;Backend&amp;nbsp;&lt;span style=&quot;font-family: inherit&quot;&gt;Architecture diagram&lt;/span&gt;&lt;/font&gt;" style="fillColor=#4DA1F5;strokeColor=none;shadow=1;gradientColor=none;fontSize=14;align=left;spacingLeft=50;fontColor=#ffffff;html=1;" parent="1" vertex="1">
          <mxGeometry x="35" y="40" width="1100" height="40" as="geometry" />
        </mxCell>
        <mxCell id="584" style="edgeStyle=elbowEdgeStyle;rounded=0;elbow=vertical;html=1;labelBackgroundColor=none;startArrow=blockThin;startFill=1;startSize=4;endArrow=blockThin;endFill=1;endSize=4;jettySize=auto;orthogonalLoop=1;strokeColor=#4284F3;strokeWidth=2;fontSize=12;fontColor=#000000;align=center;dashed=0;" parent="1" source="568" target="580" edge="1">
          <mxGeometry relative="1" as="geometry" />
        </mxCell>
        <mxCell id="rpYRog7yZXNE0Cvk91I1-623" value="" style="edgeStyle=elbowEdgeStyle;rounded=0;orthogonalLoop=1;jettySize=auto;html=1;startArrow=classic;startFill=1;strokeWidth=2;" edge="1" parent="1" source="570" target="rpYRog7yZXNE0Cvk91I1-596">
          <mxGeometry relative="1" as="geometry" />
        </mxCell>
        <mxCell id="rpYRog7yZXNE0Cvk91I1-626" style="edgeStyle=elbowEdgeStyle;rounded=0;orthogonalLoop=1;jettySize=auto;html=1;startArrow=classic;startFill=1;strokeWidth=2;" edge="1" parent="1" source="570" target="rpYRog7yZXNE0Cvk91I1-598">
          <mxGeometry relative="1" as="geometry">
            <Array as="points">
              <mxPoint x="485" y="330" />
              <mxPoint x="485" y="414" />
            </Array>
          </mxGeometry>
        </mxCell>
        <mxCell id="570" value="&lt;div&gt;&lt;span style=&quot;font-size: 14px&quot;&gt;Game&lt;/span&gt;&lt;/div&gt;&lt;div&gt;&lt;span style=&quot;font-size: 14px&quot;&gt;Services&lt;/span&gt;&lt;br&gt;&lt;/div&gt;" style="shape=mxgraph.gcp2.doubleRect;strokeColor=#dddddd;fillColor=#ffffff;shadow=1;strokeWidth=1;fontSize=10;fontColor=#9E9E9E;align=center;html=1;" parent="1" vertex="1">
          <mxGeometry x="515" y="275" width="158" height="78" as="geometry" />
        </mxCell>
        <mxCell id="571" value="" style="dashed=0;connectable=0;html=1;strokeColor=#001DBC;shape=mxgraph.gcp2.hexIcon;prIcon=compute_engine;part=1;labelPosition=right;verticalLabelPosition=middle;align=left;verticalAlign=top;spacingLeft=5;fontSize=12;spacingTop=-8;fillColor=#0050ef;fontColor=#ffffff;" parent="570" vertex="1">
          <mxGeometry width="44" height="39" relative="1" as="geometry">
            <mxPoint x="5" y="7" as="offset" />
          </mxGeometry>
        </mxCell>
        <mxCell id="rpYRog7yZXNE0Cvk91I1-593" value="" style="edgeStyle=orthogonalEdgeStyle;rounded=0;orthogonalLoop=1;jettySize=auto;html=1;" edge="1" parent="1" source="rpYRog7yZXNE0Cvk91I1-589" target="568">
          <mxGeometry relative="1" as="geometry">
            <Array as="points">
              <mxPoint x="145" y="329.25" />
              <mxPoint x="145" y="329.25" />
            </Array>
          </mxGeometry>
        </mxCell>
        <mxCell id="rpYRog7yZXNE0Cvk91I1-589" value="Users" style="strokeColor=#dddddd;shadow=1;strokeWidth=1;rounded=1;absoluteArcSize=1;arcSize=2;labelPosition=center;verticalLabelPosition=middle;align=center;verticalAlign=bottom;spacingLeft=0;fontColor=#999999;fontSize=12;whiteSpace=wrap;spacingBottom=2;" vertex="1" parent="1">
          <mxGeometry x="35" y="276.75" width="70" height="85" as="geometry" />
        </mxCell>
        <mxCell id="rpYRog7yZXNE0Cvk91I1-590" value="" style="dashed=0;connectable=0;html=1;fillColor=#757575;strokeColor=none;shape=mxgraph.gcp2.users;part=1;" vertex="1" parent="rpYRog7yZXNE0Cvk91I1-589">
          <mxGeometry x="0.5" width="50" height="31.5" relative="1" as="geometry">
            <mxPoint x="-25" y="19.25" as="offset" />
          </mxGeometry>
        </mxCell>
        <mxCell id="rpYRog7yZXNE0Cvk91I1-594" value="" style="edgeStyle=orthogonalEdgeStyle;rounded=0;orthogonalLoop=1;jettySize=auto;html=1;" edge="1" parent="1" source="568" target="rpYRog7yZXNE0Cvk91I1-589">
          <mxGeometry relative="1" as="geometry" />
        </mxCell>
        <mxCell id="568" value="" style="strokeColor=#dddddd;fillColor=#ffffff;shadow=1;strokeWidth=1;rounded=1;absoluteArcSize=1;arcSize=2;fontSize=10;fontColor=#9E9E9E;align=center;html=1;" parent="1" vertex="1">
          <mxGeometry x="155" y="289.25" width="150" height="60" as="geometry" />
        </mxCell>
        <mxCell id="569" value="Cloud Gateway" style="dashed=0;connectable=0;html=1;fillColor=#5184F3;strokeColor=none;shape=mxgraph.gcp2.hexIcon;prIcon=cloud_load_balancing;part=1;labelPosition=right;verticalLabelPosition=middle;align=left;verticalAlign=middle;spacingLeft=5;fontColor=#999999;fontSize=12;" parent="568" vertex="1">
          <mxGeometry y="0.5" width="44" height="39" relative="1" as="geometry">
            <mxPoint x="5" y="-19.5" as="offset" />
          </mxGeometry>
        </mxCell>
        <mxCell id="rpYRog7yZXNE0Cvk91I1-622" value="" style="rounded=0;orthogonalLoop=1;jettySize=auto;html=1;startArrow=classic;startFill=1;strokeWidth=2;exitX=0;exitY=0.5;exitDx=0;exitDy=0;entryX=1;entryY=0.5;entryDx=0;entryDy=0;edgeStyle=elbowEdgeStyle;" edge="1" parent="1" source="570" target="rpYRog7yZXNE0Cvk91I1-603">
          <mxGeometry relative="1" as="geometry" />
        </mxCell>
        <mxCell id="rpYRog7yZXNE0Cvk91I1-624" style="edgeStyle=elbowEdgeStyle;rounded=0;orthogonalLoop=1;jettySize=auto;html=1;startArrow=classic;startFill=1;strokeWidth=2;" edge="1" parent="1" source="rpYRog7yZXNE0Cvk91I1-596" target="rpYRog7yZXNE0Cvk91I1-598">
          <mxGeometry relative="1" as="geometry">
            <Array as="points">
              <mxPoint x="485" y="467" />
            </Array>
          </mxGeometry>
        </mxCell>
        <mxCell id="rpYRog7yZXNE0Cvk91I1-596" value="&lt;div&gt;&lt;span style=&quot;font-size: 14px&quot;&gt;Game&lt;/span&gt;&lt;/div&gt;&lt;div&gt;&lt;span style=&quot;font-size: 14px&quot;&gt;Services&lt;/span&gt;&lt;br&gt;&lt;/div&gt;" style="shape=mxgraph.gcp2.doubleRect;strokeColor=#dddddd;fillColor=#ffffff;shadow=1;strokeWidth=1;fontSize=10;fontColor=#9E9E9E;align=center;html=1;" vertex="1" parent="1">
          <mxGeometry x="515" y="380.25" width="158" height="78" as="geometry" />
        </mxCell>
        <mxCell id="rpYRog7yZXNE0Cvk91I1-597" value="" style="dashed=0;connectable=0;html=1;strokeColor=#001DBC;shape=mxgraph.gcp2.hexIcon;prIcon=compute_engine;part=1;labelPosition=right;verticalLabelPosition=middle;align=left;verticalAlign=top;spacingLeft=5;fontSize=12;spacingTop=-8;fillColor=#0050ef;fontColor=#ffffff;" vertex="1" parent="rpYRog7yZXNE0Cvk91I1-596">
          <mxGeometry width="44" height="39" relative="1" as="geometry">
            <mxPoint x="5" y="7" as="offset" />
          </mxGeometry>
        </mxCell>
        <mxCell id="rpYRog7yZXNE0Cvk91I1-625" style="edgeStyle=elbowEdgeStyle;rounded=0;orthogonalLoop=1;jettySize=auto;html=1;startArrow=classic;startFill=1;strokeWidth=2;" edge="1" parent="1" source="rpYRog7yZXNE0Cvk91I1-598" target="580">
          <mxGeometry relative="1" as="geometry" />
        </mxCell>
        <mxCell id="rpYRog7yZXNE0Cvk91I1-598" value="&lt;div&gt;&lt;span style=&quot;font-size: 14px&quot;&gt;DB&lt;/span&gt;&lt;/div&gt;&lt;div&gt;&lt;span style=&quot;font-size: 14px&quot;&gt;Services&lt;/span&gt;&lt;br&gt;&lt;/div&gt;" style="shape=mxgraph.gcp2.doubleRect;strokeColor=#dddddd;fillColor=#ffffff;shadow=1;strokeWidth=1;fontSize=10;fontColor=#9E9E9E;align=center;html=1;" vertex="1" parent="1">
          <mxGeometry x="515" y="475" width="158" height="78" as="geometry" />
        </mxCell>
        <mxCell id="rpYRog7yZXNE0Cvk91I1-599" value="" style="dashed=0;connectable=0;html=1;strokeColor=#001DBC;shape=mxgraph.gcp2.hexIcon;prIcon=compute_engine;part=1;labelPosition=right;verticalLabelPosition=middle;align=left;verticalAlign=top;spacingLeft=5;fontSize=12;spacingTop=-8;fillColor=#0050ef;fontColor=#ffffff;" vertex="1" parent="rpYRog7yZXNE0Cvk91I1-598">
          <mxGeometry width="44" height="39" relative="1" as="geometry">
            <mxPoint x="5" y="7" as="offset" />
          </mxGeometry>
        </mxCell>
        <mxCell id="rpYRog7yZXNE0Cvk91I1-601" value="" style="strokeColor=#dddddd;shadow=1;strokeWidth=1;rounded=1;absoluteArcSize=1;arcSize=2;fillColor=#ffffff;" vertex="1" parent="1">
          <mxGeometry x="325" y="170" width="130" height="60" as="geometry" />
        </mxCell>
        <mxCell id="rpYRog7yZXNE0Cvk91I1-602" value="Kubernetes" style="dashed=0;connectable=0;html=1;fillColor=#5184F3;strokeColor=none;shape=mxgraph.gcp2.kubernetes_logo;part=1;labelPosition=right;verticalLabelPosition=middle;align=left;verticalAlign=middle;spacingLeft=5;fontColor=#999999;fontSize=12;" vertex="1" parent="rpYRog7yZXNE0Cvk91I1-601">
          <mxGeometry width="45" height="43.65" relative="1" as="geometry">
            <mxPoint x="5" y="7.675000000000001" as="offset" />
          </mxGeometry>
        </mxCell>
        <mxCell id="rpYRog7yZXNE0Cvk91I1-603" value="" style="strokeColor=#dddddd;shadow=1;strokeWidth=1;rounded=1;absoluteArcSize=1;arcSize=2;fillColor=#ffffff;" vertex="1" parent="1">
          <mxGeometry x="325" y="284" width="130" height="60" as="geometry" />
        </mxCell>
        <mxCell id="rpYRog7yZXNE0Cvk91I1-604" value="Istio" style="dashed=0;connectable=0;html=1;fillColor=#5184F3;strokeColor=none;shape=mxgraph.gcp2.istio_logo;part=1;labelPosition=right;verticalLabelPosition=middle;align=left;verticalAlign=middle;spacingLeft=5;fontColor=#999999;fontSize=12;" vertex="1" parent="rpYRog7yZXNE0Cvk91I1-603">
          <mxGeometry width="30.150000000000002" height="45" relative="1" as="geometry">
            <mxPoint x="5" y="7" as="offset" />
          </mxGeometry>
        </mxCell>
        <mxCell id="rpYRog7yZXNE0Cvk91I1-607" value="" style="edgeStyle=orthogonalEdgeStyle;rounded=0;orthogonalLoop=1;jettySize=auto;html=1;strokeWidth=2;fillColor=#6a00ff;strokeColor=#3700CC;startArrow=classic;startFill=1;" edge="1" parent="1" source="rpYRog7yZXNE0Cvk91I1-605" target="rpYRog7yZXNE0Cvk91I1-598">
          <mxGeometry relative="1" as="geometry" />
        </mxCell>
        <mxCell id="rpYRog7yZXNE0Cvk91I1-605" value="" style="strokeColor=#dddddd;shadow=1;strokeWidth=1;rounded=1;absoluteArcSize=1;arcSize=2;fillColor=#ffffff;" vertex="1" parent="1">
          <mxGeometry x="534" y="680" width="120" height="60" as="geometry" />
        </mxCell>
        <mxCell id="rpYRog7yZXNE0Cvk91I1-606" value="Cloud&lt;br&gt;DB" style="dashed=0;connectable=0;html=1;fillColor=#5184F3;strokeColor=none;shape=mxgraph.gcp2.hexIcon;prIcon=cloud_sql;part=1;labelPosition=right;verticalLabelPosition=middle;align=left;verticalAlign=middle;spacingLeft=5;fontColor=#999999;fontSize=12;" vertex="1" parent="rpYRog7yZXNE0Cvk91I1-605">
          <mxGeometry y="0.5" width="44" height="39" relative="1" as="geometry">
            <mxPoint x="5" y="-19.5" as="offset" />
          </mxGeometry>
        </mxCell>
        <mxCell id="rpYRog7yZXNE0Cvk91I1-609" value="&lt;font style=&quot;font-size: 16px&quot;&gt;&lt;font color=&quot;#ff3912&quot;&gt;private&lt;/font&gt; Dev Kubernetes cluster&lt;/font&gt;" style="rounded=1;absoluteArcSize=1;arcSize=2;html=1;strokeColor=none;gradientColor=none;shadow=0;dashed=0;strokeColor=none;fontSize=12;fontColor=#9E9E9E;align=left;verticalAlign=top;spacing=10;spacingTop=-4;fillColor=#E1F5FE;" vertex="1" parent="1">
          <mxGeometry x="784.9954098360656" y="140" width="349.311475409836" height="420" as="geometry" />
        </mxCell>
        <mxCell id="rpYRog7yZXNE0Cvk91I1-610" value="" style="strokeColor=#dddddd;shadow=1;strokeWidth=1;rounded=1;absoluteArcSize=1;arcSize=2;fillColor=#ffffff;" vertex="1" parent="1">
          <mxGeometry x="785" y="170" width="130" height="60" as="geometry" />
        </mxCell>
        <mxCell id="rpYRog7yZXNE0Cvk91I1-611" value="Kubernetes" style="dashed=0;connectable=0;html=1;fillColor=#5184F3;strokeColor=none;shape=mxgraph.gcp2.kubernetes_logo;part=1;labelPosition=right;verticalLabelPosition=middle;align=left;verticalAlign=middle;spacingLeft=5;fontColor=#999999;fontSize=12;" vertex="1" parent="rpYRog7yZXNE0Cvk91I1-610">
          <mxGeometry width="45" height="43.65" relative="1" as="geometry">
            <mxPoint x="5" y="7.675000000000001" as="offset" />
          </mxGeometry>
        </mxCell>
        <mxCell id="rpYRog7yZXNE0Cvk91I1-613" value="private&lt;br&gt;Container&lt;br&gt;Registry" style="html=1;fillColor=#5184F3;strokeColor=none;verticalAlign=top;labelPosition=center;verticalLabelPosition=bottom;align=center;spacingTop=-6;fontSize=11;fontStyle=1;fontColor=#999999;shape=mxgraph.gcp2.hexIcon;prIcon=container_registry" vertex="1" parent="1">
          <mxGeometry x="885" y="290" width="66" height="58.5" as="geometry" />
        </mxCell>
        <mxCell id="rpYRog7yZXNE0Cvk91I1-614" value="private&lt;br&gt;Cloud Source&lt;br&gt;Repositories" style="html=1;fillColor=#5184F3;strokeColor=none;verticalAlign=top;labelPosition=center;verticalLabelPosition=bottom;align=center;spacingTop=-6;fontSize=11;fontStyle=1;fontColor=#999999;shape=mxgraph.gcp2.hexIcon;prIcon=placeholder" vertex="1" parent="1">
          <mxGeometry x="885" y="399.75" width="66" height="58.5" as="geometry" />
        </mxCell>
        <mxCell id="rpYRog7yZXNE0Cvk91I1-617" value="" style="edgeStyle=orthogonalEdgeStyle;rounded=0;orthogonalLoop=1;jettySize=auto;html=1;startArrow=classic;startFill=1;strokeWidth=2;fillColor=#e51400;strokeColor=#B20000;" edge="1" parent="1" source="rpYRog7yZXNE0Cvk91I1-615">
          <mxGeometry relative="1" as="geometry">
            <mxPoint x="675" y="180" as="targetPoint" />
            <Array as="points">
              <mxPoint x="745" y="279" />
              <mxPoint x="745" y="180" />
            </Array>
          </mxGeometry>
        </mxCell>
        <mxCell id="rpYRog7yZXNE0Cvk91I1-615" value="Jenkins Tools&lt;br&gt;for CI/CD" style="html=1;fillColor=#5184F3;strokeColor=none;verticalAlign=top;labelPosition=center;verticalLabelPosition=bottom;align=center;spacingTop=-6;fontSize=11;fontStyle=1;fontColor=#999999;shape=mxgraph.gcp2.hexIcon;prIcon=placeholder" vertex="1" parent="1">
          <mxGeometry x="795" y="250" width="66" height="58.5" as="geometry" />
        </mxCell>
        <mxCell id="rpYRog7yZXNE0Cvk91I1-616" value="Cloud&#xa;Test Lab" style="html=1;fillColor=#5184F3;strokeColor=none;verticalAlign=top;labelPosition=center;verticalLabelPosition=bottom;align=center;spacingTop=-6;fontSize=11;fontStyle=1;fontColor=#999999;shape=mxgraph.gcp2.hexIcon;prIcon=cloud_test_lab" vertex="1" parent="1">
          <mxGeometry x="1055" y="170.75" width="66" height="58.5" as="geometry" />
        </mxCell>
        <mxCell id="rpYRog7yZXNE0Cvk91I1-618" value="Dev&#xa;Users" style="strokeColor=#dddddd;shadow=1;strokeWidth=1;rounded=1;absoluteArcSize=1;arcSize=2;labelPosition=center;verticalLabelPosition=middle;align=center;verticalAlign=bottom;spacingLeft=0;fontColor=#999999;fontSize=12;whiteSpace=wrap;spacingBottom=2;" vertex="1" parent="1">
          <mxGeometry x="1055" y="468" width="70" height="85" as="geometry" />
        </mxCell>
        <mxCell id="rpYRog7yZXNE0Cvk91I1-619" value="" style="dashed=0;connectable=0;html=1;fillColor=#757575;strokeColor=none;shape=mxgraph.gcp2.users;part=1;" vertex="1" parent="rpYRog7yZXNE0Cvk91I1-618">
          <mxGeometry x="0.5" width="50" height="31.5" relative="1" as="geometry">
            <mxPoint x="-25" y="19.25" as="offset" />
          </mxGeometry>
        </mxCell>
      </root>
    </mxGraphModel>
  </diagram>
</mxfile>
